<svg width="86" height="32" viewBox="0 0 86 32" fill="none" xmlns="http://www.w3.org/2000/svg">
<g clip-path="url(#clip0_37_13)">
<path d="M44.334 10.5631L48.4194 10.299C48.5126 10.967 48.6835 11.4641 48.9631 11.8214C49.4136 12.3806 50.035 12.6602 50.8583 12.6602C51.4641 12.6602 51.9456 12.5204 52.2719 12.2252C52.5825 11.9922 52.7689 11.6194 52.7689 11.2311C52.7689 10.8582 52.5981 10.501 52.3029 10.268C51.9922 9.98834 51.2621 9.70873 50.1126 9.46019C48.233 9.04077 46.8816 8.48155 46.0893 7.76698C45.2971 7.09902 44.8466 6.12038 44.8777 5.07961C44.8777 4.36504 45.0951 3.65048 45.499 3.06019C45.9651 2.39223 46.6019 1.86407 47.3631 1.56893C48.1864 1.21165 49.3359 1.02524 50.7806 1.02524C52.5515 1.02524 53.9029 1.35145 54.835 2.01941C55.767 2.67184 56.3262 3.72815 56.4971 5.17281L52.4583 5.40582C52.3495 4.78446 52.132 4.33397 51.7748 4.03883C51.4175 3.74368 50.9515 3.60388 50.3456 3.60388C49.8485 3.60388 49.4757 3.71262 49.2272 3.91456C48.9942 4.10096 48.8388 4.38058 48.8544 4.69126C48.8544 4.92427 48.9786 5.14174 49.1651 5.28155C49.367 5.46795 49.8485 5.63883 50.6097 5.79417C52.4893 6.19805 53.8252 6.60194 54.6485 7.02135C55.4718 7.44077 56.0621 7.95339 56.4194 8.55922C56.7922 9.18058 56.9786 9.89514 56.9631 10.6252C56.9631 11.4951 56.7146 12.365 56.2175 13.0951C55.7049 13.8563 54.9903 14.4466 54.1515 14.8039C53.266 15.1922 52.1476 15.3942 50.8117 15.3942C48.4505 15.3942 46.8194 14.9437 45.9029 14.0272C44.9864 13.1107 44.4427 11.9612 44.334 10.5631ZM0.978641 15.1612V1.27378H8.13981C9.4602 1.27378 10.4854 1.38252 11.1845 1.61553C11.868 1.833 12.4738 2.28349 12.8777 2.88931C13.3282 3.55728 13.5456 4.33397 13.5301 5.14174C13.5767 6.50873 12.8777 7.81359 11.6816 8.49708C11.2155 8.76116 10.7029 8.94757 10.1748 9.04077C10.5631 9.14951 10.9515 9.33592 11.2932 9.55339C11.5573 9.77087 11.7748 10.0194 11.9767 10.2835C12.2097 10.5476 12.4117 10.8427 12.5825 11.1534L14.6641 15.1767H9.78641L7.48738 10.9048C7.19223 10.3612 6.94369 10.0039 6.71068 9.833C6.4 9.61553 6.02719 9.50679 5.65437 9.50679H5.28155V15.1456H0.978641V15.1612ZM5.28155 6.89708H7.09903C7.48738 6.86601 7.86019 6.80388 8.23301 6.71067C8.51262 6.66407 8.76117 6.50873 8.93204 6.27572C9.35146 5.7165 9.28932 4.92427 8.7767 4.44271C8.49709 4.2097 7.9534 4.08543 7.1767 4.08543H5.28155V6.89708ZM0 27.0602L4.08544 26.7961C4.17864 27.4641 4.34951 27.9612 4.62913 28.3184C5.06408 28.8777 5.70097 29.1728 6.52427 29.1728C7.1301 29.1728 7.61165 29.033 7.93786 28.7379C8.24854 28.4893 8.43495 28.132 8.43495 27.7437C8.43495 27.3709 8.26408 27.0136 7.96893 26.7806C7.65825 26.501 6.92816 26.2214 5.76311 25.9728C3.8835 25.5534 2.53204 24.9942 1.73981 24.2796C0.947573 23.6116 0.497087 22.633 0.528155 21.5922C0.528155 20.8777 0.745631 20.1631 1.14951 19.5728C1.61553 18.9048 2.25243 18.3767 3.01359 18.0815C3.83689 17.7243 4.98641 17.5379 6.43107 17.5379C8.20194 17.5379 9.5534 17.8641 10.4854 18.532C11.4175 19.2 11.9612 20.2408 12.132 21.6854L8.0932 21.9184C7.98447 21.2971 7.76699 20.8466 7.40971 20.5515C7.06796 20.2563 6.58641 20.1165 5.98058 20.132C5.4835 20.132 5.11068 20.2408 4.86214 20.4582C4.61359 20.6447 4.47379 20.9243 4.48932 21.2349C4.48932 21.468 4.61359 21.6854 4.8 21.8252C5.00194 22.0116 5.4835 22.1825 6.24466 22.3379C8.12427 22.7417 9.46019 23.1456 10.2835 23.565C11.1068 23.9845 11.6971 24.4971 12.0544 25.1029C12.4272 25.7243 12.6136 26.4388 12.6136 27.1534C12.6136 28.0233 12.3495 28.8777 11.868 29.6078C11.3553 30.3689 10.6408 30.9592 9.80194 31.3165C8.91651 31.7048 7.79806 31.9068 6.46214 31.9068C4.10097 31.9068 2.4699 31.4563 1.5534 30.5398C0.636893 29.6078 0.124272 28.4582 0 27.0602Z" fill="#E6E6E6"/>
<path d="M20.6602 25.9728L24.4194 27.1068C24.2175 28.0544 23.7981 28.9553 23.2233 29.7476C22.6952 30.4466 21.9961 30.9903 21.2039 31.3476C20.3961 31.7049 19.3709 31.8913 18.1282 31.8913C16.6214 31.8913 15.3786 31.6738 14.4311 31.2388C13.468 30.8039 12.6447 30.0272 11.9456 28.9243C11.2466 27.8214 10.9049 26.4078 10.9049 24.6835C10.9049 22.3845 11.5107 20.6136 12.7379 19.3864C13.9651 18.1592 15.6893 17.5379 17.9262 17.5379C19.6816 17.5379 21.0486 17.8952 22.0583 18.5942C23.0524 19.3087 23.7981 20.3961 24.2952 21.8563L20.5049 22.6952C20.4117 22.3689 20.2719 22.0427 20.0854 21.7631C19.8524 21.4369 19.5573 21.1884 19.2 21.0019C18.8427 20.8155 18.4388 20.7379 18.035 20.7379C17.0563 20.7379 16.3107 21.1262 15.7981 21.9185C15.4097 22.4932 15.2078 23.4097 15.2078 24.6524C15.2078 26.1903 15.4408 27.2466 15.9068 27.8214C16.3728 28.3961 17.0253 28.6757 17.8796 28.6757C18.7029 28.6757 19.3243 28.4427 19.7437 27.9922C20.1631 27.5107 20.4738 26.8427 20.6602 25.9728ZM29.4369 17.7709H33.7243V22.633H38.4155V17.7709H42.734V31.6583H38.4155V26.035H33.7243V31.6583H29.4369V17.7709Z" fill="#E6E6E6"/>
<path d="M42.1437 24.7146C42.1437 22.4466 42.7806 20.6757 44.0388 19.4175C45.2971 18.1592 47.068 17.5223 49.3204 17.5223C51.635 17.5223 53.4058 18.1437 54.6641 19.3864C55.9223 20.6291 56.5437 22.3689 56.5437 24.6058C56.5437 26.2369 56.2641 27.5573 55.7204 28.5981C55.1922 29.6233 54.3689 30.4621 53.3592 31.0214C52.3185 31.5961 51.0291 31.8913 49.4913 31.8913C47.9223 31.8913 46.633 31.6427 45.6078 31.1456C44.5515 30.6175 43.6816 29.7942 43.1068 28.7845C42.4699 27.6971 42.1437 26.3456 42.1437 24.7146ZM46.4311 24.7301C46.4311 26.1282 46.6951 27.1379 47.2078 27.7592C47.7204 28.3651 48.435 28.6757 49.3359 28.6757C50.2524 28.6757 50.967 28.3806 51.4796 27.7748C51.9922 27.1689 52.2408 26.0971 52.2408 24.5437C52.2408 23.2388 51.9767 22.2757 51.4486 21.6854C50.9204 21.0796 50.2058 20.7845 49.3049 20.7845C48.5126 20.7534 47.7515 21.0952 47.2233 21.701C46.6952 22.3068 46.4311 23.3165 46.4311 24.7301ZM60.9398 24.7146C60.9398 22.4466 61.5767 20.6757 62.835 19.4175C64.0932 18.1592 65.8641 17.5223 68.1165 17.5223C70.4311 17.5223 72.2175 18.1437 73.4602 19.3864C74.7029 20.6291 75.3398 22.3689 75.3398 24.6058C75.3398 26.2369 75.0602 27.5573 74.5165 28.5981C73.9884 29.6233 73.1651 30.4621 72.1553 31.0214C71.1146 31.5961 69.8253 31.8913 68.2874 31.8913C66.7185 31.8913 65.4291 31.6427 64.4039 31.1456C63.3476 30.6175 62.4777 29.7942 61.9029 28.7845C61.266 27.6971 60.9398 26.3456 60.9398 24.7146ZM65.2272 24.7301C65.2272 26.1282 65.4913 27.1379 66.0039 27.7592C66.5165 28.3651 67.2311 28.6757 68.132 28.6757C69.0486 28.6757 69.7631 28.3806 70.2757 27.7748C70.7884 27.1689 71.0369 26.0971 71.0369 24.5437C71.0369 23.2388 70.7728 22.2757 70.2447 21.6854C69.7165 21.0796 69.0019 20.7845 68.101 20.7845C67.3087 20.7534 66.532 21.0952 66.0194 21.701C65.4913 22.3068 65.2272 23.3165 65.2272 24.7301Z" fill="#E6E6E6"/>
<path d="M74.8893 17.7709H79.1767V28.2408H85.8718V31.6583H74.8738V17.7709H74.8893Z" fill="#E6E6E6"/>
<path d="M70.9404 15.7268C75.2569 12.4739 76.588 6.95985 73.9133 3.41075C71.2388 -0.138355 65.5716 -0.378543 61.255 2.87427C56.9386 6.12708 55.6075 11.6411 58.2821 15.1902C60.9566 18.7393 66.6238 18.9796 70.9404 15.7268Z" fill="#E6E6E6"/>
<path d="M61.8369 8.22809L63.3903 7.14071L65.301 9.85916C65.6272 10.2941 65.8757 10.7601 66.0621 11.2727C66.1709 11.6611 66.1398 12.0805 65.9845 12.4533C65.7825 12.9194 65.4563 13.3077 65.0214 13.5873C64.5087 13.9446 64.0738 14.1465 63.701 14.2087C63.3437 14.2708 62.9709 14.2087 62.6291 14.0533C62.2563 13.8669 61.9301 13.6028 61.6816 13.2611L63.0175 12.0184C63.1262 12.1893 63.266 12.3446 63.4214 12.4689C63.5301 12.5465 63.6544 12.5931 63.7942 12.5931C63.9029 12.5931 64.0117 12.5465 64.0893 12.4844C64.2447 12.3912 64.3534 12.2048 64.3379 12.0184C64.2913 11.7543 64.1825 11.4902 64.0117 11.2883L61.8369 8.22809ZM66.4971 9.95236L67.9107 8.83391C68.066 9.02032 68.268 9.16013 68.4854 9.2378C68.7961 9.331 69.1223 9.26887 69.3864 9.06692C69.5728 8.94265 69.7282 8.77178 69.7903 8.5543C69.8835 8.27469 69.7282 7.96401 69.4485 7.87081C69.4019 7.85527 69.3553 7.83974 69.3087 7.83974C69.1223 7.82421 68.7961 7.90188 68.3146 8.10382C67.5223 8.43003 66.901 8.5543 66.435 8.5077C65.9845 8.4611 65.5651 8.22809 65.3165 7.83974C65.1301 7.57566 65.0369 7.26498 65.0214 6.9543C65.0214 6.59702 65.1146 6.23974 65.3165 5.94459C65.6117 5.52518 65.9689 5.16789 66.4039 4.88828C67.0563 4.4378 67.6311 4.22032 68.1282 4.22032C68.6252 4.22032 69.0913 4.45333 69.5262 4.93488L68.1282 6.0378C67.8485 5.68052 67.3204 5.60285 66.9631 5.88246L66.9165 5.92906C66.7612 6.02226 66.6524 6.16207 66.5903 6.33294C66.5437 6.45721 66.5748 6.59702 66.6524 6.70576C66.7146 6.78343 66.8078 6.84556 66.9165 6.84556C67.0408 6.8611 67.2583 6.79896 67.5689 6.65916C68.3456 6.33294 68.9359 6.14654 69.3398 6.0844C69.6816 6.02226 70.0388 6.05333 70.3651 6.19314C70.6602 6.31741 70.9087 6.53488 71.0796 6.79896C71.2971 7.10964 71.4214 7.48246 71.4369 7.87081C71.4524 8.27469 71.3437 8.66304 71.1262 9.00479C70.8466 9.42421 70.4893 9.78149 70.0699 10.0611C69.2155 10.6514 68.5165 10.8999 67.9573 10.8067C67.3515 10.7135 66.8544 10.4028 66.4971 9.95236Z" fill="#898989"/>
</g>
<defs>
<clipPath id="clip0_37_13">
<rect width="85.9029" height="32" fill="white"/>
</clipPath>
</defs>
</svg>
