<svg width="19" height="19" viewBox="0 0 19 19" fill="none" xmlns="http://www.w3.org/2000/svg">
<g clip-path="url(#clip0_1_3)">
<path d="M9.25 0C4.1414 0 0 4.1414 0 9.25C0 14.3586 4.1414 18.5 9.25 18.5C14.3586 18.5 18.5 14.3586 18.5 9.25C18.5 4.1414 14.3586 0 9.25 0ZM9.25 16.7656C5.09935 16.7656 1.73438 13.4006 1.73438 9.25C1.73438 5.09935 5.09935 1.73438 9.25 1.73438C13.4006 1.73438 16.7656 5.09935 16.7656 9.25C16.7656 13.4006 13.4006 16.7656 9.25 16.7656ZM5.78125 5.78125H8.09375V12.7188H5.78125V5.78125ZM10.4062 5.78125H12.7188V12.7188H10.4062V5.78125Z" fill="white"/>
</g>
<defs>
<clipPath id="clip0_1_3">
<rect width="18.5" height="18.5" fill="white"/>
</clipPath>
</defs>
</svg>
