<svg width="32" height="32" viewBox="0 0 32 32" fill="none" xmlns="http://www.w3.org/2000/svg">
<path d="M22.0023 12.5818H30.9939C31.5614 12.5818 31.985 12.0701 31.985 11.4224C31.985 10.7737 31.5614 10.2973 30.9939 10.2985H23.0014V1.14222C23.0014 0.493441 22.5699 0 22.0024 0C21.435 0 21.0034 0.493441 21.0034 1.14222V11.4224C21.0034 11.4259 21.0044 11.4281 21.0044 11.4304C21.0044 11.4338 21.0034 11.4361 21.0034 11.4395C21.0033 12.0769 21.4448 12.583 22.0023 12.5818Z" fill="white"/>
<path d="M9.98962 0.0091095C9.42317 0.0091095 9.00653 0.494575 9.00653 1.14221V10.2801H0.999037C0.431587 10.2801 0 10.7736 0 11.4223C0 12.0711 0.431587 12.5646 0.999037 12.5646H9.99062C9.99361 12.5646 9.9956 12.5634 9.9976 12.5634C10.0006 12.5634 10.0026 12.5646 10.0056 12.5646C10.5631 12.5646 11.0046 12.0597 11.0046 11.4223V1.14221C11.0047 0.494575 10.5571 0.0102489 9.98962 0.0091095Z" fill="white"/>
<path d="M9.9976 19.4182H1.00609C0.438645 19.4193 0.0150299 19.9299 0.0150299 20.5787C0.0150299 21.2275 0.438645 21.7038 1.00609 21.7027H8.99856V30.8578C8.99856 31.5066 9.43015 32 9.9976 32C10.565 32 10.9966 31.5066 10.9966 30.8578V20.5776C10.9966 20.5741 10.9956 20.5719 10.9956 20.5696C10.9956 20.5662 10.9966 20.5639 10.9966 20.5605C10.9967 19.923 10.5551 19.4182 9.9976 19.4182Z" fill="white"/>
<path d="M31.0009 19.4182H22.0094C22.0064 19.4182 22.0044 19.4193 22.0024 19.4193C21.9994 19.4193 21.9974 19.4182 21.9944 19.4182C21.4369 19.4182 20.9954 19.923 20.9954 20.5604V30.8406C20.9954 31.4894 21.443 31.9726 22.0105 31.9737C22.5769 31.9748 22.9935 31.4894 22.9935 30.8417V21.7038H31.0009C31.5683 21.7038 31.9999 21.2104 31.9999 20.5616C31.9999 19.9128 31.5684 19.4193 31.0009 19.4182Z" fill="white"/>
</svg>
