<svg width="32" height="32" viewBox="0 0 32 32" fill="none" xmlns="http://www.w3.org/2000/svg">
<path d="M32 0.999974C32 0.441967 31.558 0 31 0H22.015C21.447 0 21.024 0.448035 21.023 1.01602C21.023 1.583 21.447 2.00003 22.015 2.00003H30L29.9839 10.023C29.9839 10.591 30.4159 11.023 30.9839 11.023C31.5519 11.022 31.9839 10.591 31.9839 10.023L31.9999 1.01502C31.9999 1.01203 31.9989 1.01003 31.9989 1.00804C31.999 1.00496 32 1.00297 32 0.999974Z" fill="white"/>
<path d="M10.016 0H1.03098C1.02799 0 1.02599 0.00099748 1.023 0.00099748C1.021 0.00099748 1.01801 0 1.01602 0C0.45801 0 0.0159597 0.441967 0.0159597 0.999974L0 10.008C0 10.576 0.448035 11 1.01602 11C1.583 11 2.00003 10.576 2.00003 10.008L2.01599 1.99995H10.0159C10.5839 1.99995 11.0159 1.56796 11.0159 0.999974C11.015 0.431992 10.583 0 10.016 0Z" fill="white"/>
<path d="M9.98503 30H2.00003V22C2.00003 21.432 1.56804 21 1.00006 21C0.432075 21 0 21.4319 0 22V30.985C0 30.988 0.00099748 30.99 0.00099748 30.992C0.00099748 30.9949 0 30.9969 0 30.9999C0 31.5579 0.441967 31.9999 0.999974 31.9999H9.98494C10.5529 31.9999 10.9759 31.5519 10.9769 30.9839C10.977 30.417 10.553 30 9.98503 30Z" fill="white"/>
<path d="M30.984 21.023C30.416 21.023 29.999 21.447 30 22.015V30H22C21.432 30 21 30.432 21 30.9999C21 31.5679 21.432 31.9999 22 31.9999H30.985C30.988 31.9999 30.99 31.9989 30.992 31.9989C30.995 31.9979 30.997 31.9999 30.9999 31.9999C31.558 31.9999 31.9999 31.558 31.9999 30.9999V22.015C32 21.447 31.552 21.023 30.984 21.023Z" fill="white"/>
</svg>
