<svg width="32" height="32" viewBox="0 0 32 32" fill="none" xmlns="http://www.w3.org/2000/svg">
<g clip-path="url(#clip0_35_10)">
<path d="M31.417 13.3723L27.3053 12.7002C27.0646 11.8751 26.7355 11.082 26.3237 10.3313L28.7239 6.91051C28.918 6.63432 28.8846 6.25794 28.646 6.01861L25.9403 3.31437C25.6989 3.07366 25.3191 3.04235 25.0422 3.24202L21.6728 5.6638C20.9152 5.24498 20.1151 4.91243 19.2852 4.67101L18.5679 0.57605C18.5094 0.243499 18.2207 0 17.8826 0H14.0562C13.7153 0 13.4245 0.246978 13.3695 0.583703L12.7044 4.6564C11.8696 4.89643 11.0681 5.2255 10.3132 5.63875L6.95295 3.23854C6.67536 3.04026 6.29759 3.07227 6.05618 3.31229L3.35194 6.01652C3.11331 6.25515 3.07992 6.63084 3.27402 6.90704L5.63875 10.2903C5.21785 11.0521 4.88251 11.8584 4.63832 12.6975L0.581616 13.373C0.246282 13.4286 0 13.7195 0 14.059V17.8854C0 18.2228 0.242108 18.5115 0.573963 18.5707L4.63066 19.29C4.87347 20.127 5.2088 20.9333 5.6311 21.6972L3.23715 25.0457C3.03957 25.3219 3.07088 25.701 3.3109 25.9424L6.01583 28.6494C6.25446 28.8881 6.63084 28.9215 6.90704 28.7274L10.2952 26.3543C11.0556 26.7724 11.8591 27.1043 12.6919 27.345L13.3709 31.4226C13.4259 31.7572 13.716 32.0028 14.0562 32.0028H17.8826C18.22 32.0028 18.5087 31.7607 18.5672 31.4288L19.2942 27.3311C20.1284 27.0855 20.9277 26.7515 21.6805 26.3327L25.093 28.7267C25.3699 28.9222 25.7455 28.8881 25.9849 28.6494L28.6898 25.9424C28.9305 25.701 28.9618 25.3205 28.7622 25.0436L26.3285 21.6645C26.7411 20.9131 27.0688 20.1186 27.3074 19.2935L31.4246 18.5707C31.7579 18.5122 32 18.2228 32 17.8854V14.059C32.0007 13.7181 31.7537 13.4273 31.417 13.3723ZM16 20.8714C13.3104 20.8714 11.13 18.691 11.13 16.0014C11.13 13.3118 13.3104 11.1314 16 11.1314C18.6896 11.1314 20.87 13.3118 20.87 16.0014C20.87 18.691 18.6896 20.8714 16 20.8714Z" fill="white"/>
</g>
<defs>
<clipPath id="clip0_35_10">
<rect width="32" height="32" fill="white"/>
</clipPath>
</defs>
</svg>
