<svg width="20" height="20" viewBox="0 0 20 20" fill="none" xmlns="http://www.w3.org/2000/svg">
<path d="M9.16718 4.39735V16.1473C9.16737 16.3055 9.12314 16.4606 9.0396 16.5946C8.95606 16.7286 8.8366 16.8361 8.69501 16.9046C8.55342 16.9732 8.39547 17.0001 8.23938 16.9821C8.08328 16.9641 7.93541 16.9021 7.81282 16.8032L3.87438 13.6294H2.5001C1.83726 13.6287 1.20177 13.3632 0.733063 12.8911C0.264359 12.4191 0.000723802 11.7791 0 11.1115L0 9.43316C0.000723802 8.7656 0.264359 8.12558 0.733063 7.65354C1.20177 7.1815 1.83726 6.91598 2.5001 6.91526H3.87438L7.81282 3.74151C7.93539 3.6427 8.08319 3.58077 8.23918 3.56286C8.39518 3.54495 8.55302 3.57179 8.69453 3.6403C8.83603 3.7088 8.95544 3.81617 9.03899 3.95004C9.12255 4.08391 9.16685 4.23883 9.16679 4.39696L9.16718 4.39735ZM11.2809 7.96491C11.2005 8.0397 11.1355 8.12972 11.0897 8.22982C11.0438 8.32992 11.018 8.43814 11.0137 8.54829C11.0094 8.65845 11.0266 8.76838 11.0645 8.87181C11.1024 8.97524 11.1601 9.07013 11.2345 9.15108C11.5126 9.45733 11.6668 9.85732 11.6668 10.2723C11.6668 10.6873 11.5126 11.0873 11.2345 11.3936C11.1601 11.4745 11.1022 11.5694 11.0643 11.6729C11.0263 11.7763 11.0089 11.8863 11.0132 11.9965C11.0174 12.1067 11.0431 12.2149 11.0889 12.3151C11.1347 12.4153 11.1996 12.5054 11.28 12.5803C11.3603 12.6553 11.4545 12.7135 11.5573 12.7517C11.66 12.79 11.7691 12.8075 11.8786 12.8032C11.988 12.799 12.0955 12.773 12.195 12.7269C12.2945 12.6808 12.3839 12.6154 12.4583 12.5345C13.0213 11.9181 13.3338 11.1111 13.3338 10.2735C13.3338 9.43595 13.0213 8.62895 12.4583 8.01251C12.3085 7.849 12.1003 7.7521 11.8795 7.7431C11.6587 7.7341 11.4434 7.81374 11.2809 7.96451V7.96491ZM14.8053 5.62483C14.6523 5.46425 14.4422 5.37146 14.2212 5.36689C14.0003 5.36231 13.7866 5.44632 13.6271 5.60044C13.4677 5.75455 13.3756 5.96614 13.371 6.18867C13.3665 6.41119 13.4499 6.62642 13.6029 6.787C14.4992 7.7228 15.0001 8.97231 15.0001 10.2725C15.0001 11.5728 14.4992 12.8223 13.6029 13.7581C13.5271 13.8376 13.4677 13.9313 13.4279 14.034C13.3881 14.1367 13.3688 14.2462 13.371 14.3564C13.3733 14.4666 13.397 14.5752 13.441 14.6762C13.4849 14.7771 13.5482 14.8683 13.6271 14.9446C13.7061 15.0209 13.7992 15.0808 13.9011 15.1209C14.0031 15.161 14.1118 15.1804 14.2212 15.1782C14.3306 15.1759 14.4385 15.152 14.5387 15.1077C14.639 15.0634 14.7295 14.9997 14.8053 14.9202C15.9996 13.6719 16.6668 12.006 16.6668 10.2725C16.6668 8.53908 15.9996 6.87312 14.8053 5.62483ZM17.1632 3.24069C17.0077 3.08682 16.7985 3.00042 16.5805 3C16.3625 2.99959 16.1531 3.08519 15.997 3.23847C15.8409 3.39175 15.7507 3.60051 15.7456 3.82C15.7405 4.03949 15.821 4.25226 15.9698 4.41269C17.4854 5.98146 18.3334 8.0839 18.3334 10.2727C18.3334 12.4616 17.4854 14.564 15.9698 16.1328C15.821 16.2932 15.7405 16.506 15.7456 16.7255C15.7507 16.9449 15.8409 17.1537 15.997 17.307C16.1531 17.4603 16.3625 17.5459 16.5805 17.5455C16.7985 17.545 17.0077 17.4586 17.1632 17.3048C18.9822 15.4224 20 12.8994 20 10.2727C20 7.64605 18.9822 5.12307 17.1632 3.24069Z" fill="white"/>
</svg>
