<svg width="20" height="20" viewBox="0 0 20 20" fill="none" xmlns="http://www.w3.org/2000/svg">
<path d="M9.99969 3.90809V16.6366C9.9997 16.8078 9.95135 16.9756 9.86019 17.1206C9.76903 17.2655 9.63878 17.3818 9.48444 17.4559C9.3301 17.5301 9.15795 17.5592 8.98781 17.5398C8.81768 17.5204 8.65648 17.4533 8.52278 17.3463L4.22604 13.909H2.72765C2.00452 13.9082 1.31121 13.6207 0.799847 13.1094C0.288482 12.5981 0.000827253 11.9048 0 11.1817L0 9.363C0.000827253 8.63987 0.288482 7.94661 0.799847 7.43531C1.31121 6.92402 2.00452 6.63647 2.72765 6.63574H4.22721L8.52395 3.19835C8.65766 3.0917 8.81875 3.02495 8.9887 3.00575C9.15865 2.98655 9.33056 3.01569 9.4847 3.08981C9.63883 3.16394 9.76892 3.28005 9.86002 3.4248C9.95112 3.56955 9.99953 3.73706 9.99969 3.90809V3.90809ZM17.6557 10.2684L19.7338 8.19038C19.9042 8.01991 20 7.78871 20 7.54763C20 7.30655 19.9042 7.07534 19.7338 6.90488C19.5633 6.73441 19.3321 6.63864 19.091 6.63864C18.8499 6.63864 18.6187 6.73441 18.4483 6.90488L16.3667 8.98333L14.2792 6.90019C14.1083 6.72982 13.8767 6.63434 13.6354 6.63474C13.394 6.63515 13.1627 6.7314 12.9924 6.90234C12.822 7.07327 12.7265 7.30488 12.7269 7.54622C12.7273 7.78755 12.8236 8.01885 12.9945 8.18921L15.0808 10.2708L12.9953 12.3559C12.8248 12.5263 12.7291 12.7576 12.7291 12.9986C12.7291 13.2397 12.8248 13.4709 12.9953 13.6414C13.1658 13.8119 13.397 13.9076 13.6381 13.9076C13.8791 13.9076 14.1103 13.8119 14.2808 13.6414L16.3675 11.5547L18.4322 13.6152C18.6032 13.7856 18.8348 13.8811 19.0761 13.8807C19.3175 13.8803 19.5488 13.784 19.7191 13.6131C19.8895 13.4421 19.985 13.2105 19.9846 12.9692C19.9842 12.7278 19.8879 12.4966 19.717 12.3262L17.6557 10.2684Z" fill="white" fill-opacity="0.5"/>
</svg>
